<svg width="274" height="48" viewBox="0 0 274 48" fill="none" xmlns="http://www.w3.org/2000/svg">
<path d="M139.198 7.67719C177.431 0.676582 211.081 1.22121 235.171 3.51605C247.215 4.66338 256.866 6.24805 263.501 7.54437C266.819 8.19252 269.382 8.76881 271.113 9.18207C271.608 9.30013 272.035 9.40423 272.392 9.49359L262.853 23.8862L262.562 24.3246L262.759 24.8129L270.507 44.0219C270.252 43.9501 269.975 43.8715 269.674 43.7885C267.83 43.2803 265.12 42.5725 261.647 41.77C254.703 40.165 244.705 38.1809 232.474 36.6616C208.016 33.6235 174.603 32.4384 138.814 39.8676C103.283 47.2433 68.6276 47.2208 42.8428 45.3491C29.9535 44.4134 19.2882 43.0163 11.8486 41.8539C8.12918 41.2728 5.21614 40.7502 3.23535 40.3735C2.6045 40.2535 2.06855 40.1466 1.63086 40.059L11.6035 24.5873L11.8535 24.1996L11.7197 23.7573L6.40234 6.10394C6.67582 6.17156 6.98046 6.24723 7.31641 6.32758C9.04859 6.74186 11.604 7.31728 14.9082 7.96234C21.5164 9.25244 31.1209 10.8235 43.125 11.9545C66.7567 14.1811 99.6995 14.7014 137.399 8.0014L139.198 7.67719Z" fill="#E85120" stroke="#BA421C" stroke-width="2"/>
<path d="M48.5 42.9662H129C129 42.9662 106.5 46.6581 92.5 47.0622C78.5 47.4662 61.5 47.4662 61.5 47.4662L48.5 42.9662Z" fill="#732A12"/>
<path d="M226.656 5.96624L141 5.96624C141 5.96624 155.5 3.96624 174 1.96612C187.534 0.502896 204 -0.0337525 211 0.966248C213.478 1.32028 226.656 5.96624 226.656 5.96624Z" fill="#732A12"/>
<rect x="47" y="6.56207" width="181" height="36" rx="3" fill="#E85120" stroke="#BA421C" stroke-width="2"/>
<g filter="url(#filter0_d_27_122)">
<path d="M74.1673 36.44C73.2607 36.44 72.4073 36.2933 71.6073 36C70.834 35.7067 70.194 35.1333 69.6873 34.28C69.1807 33.4 68.9273 32.0933 68.9273 30.36V17.4C68.9273 16.0133 69.194 14.9333 69.7273 14.16C70.2873 13.3867 71.0607 12.8533 72.0473 12.56C73.034 12.24 74.1807 12.08 75.4873 12.08C76.794 12.08 77.9407 12.24 78.9273 12.56C79.9407 12.8533 80.7273 13.3867 81.2873 14.16C81.874 14.9333 82.1673 16.0133 82.1673 17.4V20.72H77.6473V17.16C77.6473 16.52 77.554 16.04 77.3673 15.72C77.2073 15.3733 76.9807 15.1467 76.6873 15.04C76.394 14.9333 76.034 14.88 75.6073 14.88C75.2073 14.88 74.8473 14.9333 74.5273 15.04C74.234 15.1467 73.994 15.3733 73.8073 15.72C73.6473 16.04 73.5673 16.52 73.5673 17.16V31.48C73.5673 32.0933 73.6473 32.5733 73.8073 32.92C73.994 33.24 74.234 33.4667 74.5273 33.6C74.8473 33.7067 75.2073 33.76 75.6073 33.76C76.2207 33.76 76.714 33.5733 77.0873 33.2C77.4607 32.8267 77.6473 32.2533 77.6473 31.48V26.76H75.7273V24.12H82.1673V36H78.6873L78.4473 34.16C78.394 34.24 78.3407 34.32 78.2873 34.4C78.234 34.48 78.194 34.5467 78.1673 34.6C77.9007 35.0533 77.4473 35.48 76.8073 35.88C76.194 36.2533 75.314 36.44 74.1673 36.44ZM85.1448 36V12.36H89.7848V36H85.1448ZM98.1127 36.44C97.206 36.44 96.3527 36.2933 95.5527 36C94.7793 35.7067 94.1393 35.1333 93.6327 34.28C93.126 33.4 92.8727 32.0933 92.8727 30.36V17.4C92.8727 16.0133 93.1393 14.9333 93.6727 14.16C94.2327 13.3867 95.006 12.8533 95.9927 12.56C96.9793 12.24 98.126 12.08 99.4327 12.08C100.739 12.08 101.886 12.24 102.873 12.56C103.886 12.8533 104.673 13.3867 105.233 14.16C105.819 14.9333 106.113 16.0133 106.113 17.4V20.72H101.593V17.16C101.593 16.52 101.499 16.04 101.313 15.72C101.153 15.3733 100.926 15.1467 100.633 15.04C100.339 14.9333 99.9793 14.88 99.5527 14.88C99.1527 14.88 98.7927 14.9333 98.4727 15.04C98.1793 15.1467 97.9393 15.3733 97.7527 15.72C97.5927 16.04 97.5127 16.52 97.5127 17.16V31.48C97.5127 32.0933 97.5927 32.5733 97.7527 32.92C97.9393 33.24 98.1793 33.4667 98.4727 33.6C98.7927 33.7067 99.1527 33.76 99.5527 33.76C100.166 33.76 100.659 33.5733 101.033 33.2C101.406 32.8267 101.593 32.2533 101.593 31.48V26.76H99.6727V24.12H106.113V36H102.633L102.393 34.16C102.339 34.24 102.286 34.32 102.233 34.4C102.179 34.48 102.139 34.5467 102.113 34.6C101.846 35.0533 101.393 35.48 100.753 35.88C100.139 36.2533 99.2593 36.44 98.1127 36.44ZM107.73 36L111.97 12.36H118.61L122.77 36H117.57L116.85 31.64H113.41L112.73 36H107.73ZM113.49 29.32H116.81L115.17 16.48L113.49 29.32ZM129.714 36.44C128.808 36.44 127.954 36.2933 127.154 36C126.381 35.7067 125.741 35.1333 125.234 34.28C124.728 33.4 124.474 32.0933 124.474 30.36V17.4C124.474 16.0133 124.741 14.9333 125.274 14.16C125.834 13.3867 126.608 12.8533 127.594 12.56C128.581 12.24 129.728 12.08 131.034 12.08C132.341 12.08 133.488 12.24 134.474 12.56C135.488 12.8533 136.274 13.3867 136.834 14.16C137.421 14.9333 137.714 16.0133 137.714 17.4V20.72H133.194V17.16C133.194 16.52 133.101 16.04 132.914 15.72C132.754 15.3733 132.528 15.1467 132.234 15.04C131.941 14.9333 131.581 14.88 131.154 14.88C130.754 14.88 130.394 14.9333 130.074 15.04C129.781 15.1467 129.541 15.3733 129.354 15.72C129.194 16.04 129.114 16.52 129.114 17.16V31.48C129.114 32.0933 129.194 32.5733 129.354 32.92C129.541 33.24 129.781 33.4667 130.074 33.6C130.394 33.7067 130.754 33.76 131.154 33.76C131.768 33.76 132.261 33.5733 132.634 33.2C133.008 32.8267 133.194 32.2533 133.194 31.48V26.76H131.274V24.12H137.714V36H134.234L133.994 34.16C133.941 34.24 133.888 34.32 133.834 34.4C133.781 34.48 133.741 34.5467 133.714 34.6C133.448 35.0533 132.994 35.48 132.354 35.88C131.741 36.2533 130.861 36.44 129.714 36.44ZM140.692 36V12.36H151.572V15.64H145.532V21.96H150.652V25.6H145.532V32.8H151.572V36H140.692ZM154.051 36V12.36H158.691V36H154.051ZM167.019 36.44C166.112 36.44 165.259 36.2933 164.459 36C163.686 35.7067 163.046 35.1333 162.539 34.28C162.032 33.4 161.779 32.0933 161.779 30.36V17.4C161.779 16.0133 162.046 14.9333 162.579 14.16C163.139 13.3867 163.912 12.8533 164.899 12.56C165.886 12.24 167.032 12.08 168.339 12.08C169.646 12.08 170.792 12.24 171.779 12.56C172.792 12.8533 173.579 13.3867 174.139 14.16C174.726 14.9333 175.019 16.0133 175.019 17.4V20.72H170.499V17.16C170.499 16.52 170.406 16.04 170.219 15.72C170.059 15.3733 169.832 15.1467 169.539 15.04C169.246 14.9333 168.886 14.88 168.459 14.88C168.059 14.88 167.699 14.9333 167.379 15.04C167.086 15.1467 166.846 15.3733 166.659 15.72C166.499 16.04 166.419 16.52 166.419 17.16V31.48C166.419 32.0933 166.499 32.5733 166.659 32.92C166.846 33.24 167.086 33.4667 167.379 33.6C167.699 33.7067 168.059 33.76 168.459 33.76C169.072 33.76 169.566 33.5733 169.939 33.2C170.312 32.8267 170.499 32.2533 170.499 31.48V26.76H168.579V24.12H175.019V36H171.539L171.299 34.16C171.246 34.24 171.192 34.32 171.139 34.4C171.086 34.48 171.046 34.5467 171.019 34.6C170.752 35.0533 170.299 35.48 169.659 35.88C169.046 36.2533 168.166 36.44 167.019 36.44ZM177.996 36V12.36H188.876V15.64H182.836V21.96H187.956V25.6H182.836V32.8H188.876V36H177.996ZM191.356 36V12.36H199.996C201.569 12.36 202.756 12.72 203.556 13.44C204.356 14.1333 204.756 15.1067 204.756 16.36V20.04C204.756 21.2933 204.422 22.3467 203.756 23.2C203.089 24.0533 202.049 24.5467 200.636 24.68C201.542 24.8133 202.182 25.12 202.556 25.6C202.956 26.0533 203.302 26.8 203.596 27.84L205.836 36H200.676L198.956 28.16C198.796 27.52 198.609 26.9867 198.396 26.56C198.209 26.1067 197.929 25.88 197.556 25.88H196.196V36H191.356ZM196.196 22.64H198.116C198.862 22.64 199.396 22.44 199.716 22.04C200.036 21.6133 200.196 20.9467 200.196 20.04V17.2C200.196 16.3467 200.049 15.7467 199.756 15.4C199.462 15.0533 199.009 14.88 198.396 14.88H196.196V22.64Z" fill="#EFDCA6"/>
</g>
<defs>
<filter id="filter0_d_27_122" x="68.9274" y="12.08" width="138.908" height="25.36" filterUnits="userSpaceOnUse" color-interpolation-filters="sRGB">
<feFlood flood-opacity="0" result="BackgroundImageFix"/>
<feColorMatrix in="SourceAlpha" type="matrix" values="0 0 0 0 0 0 0 0 0 0 0 0 0 0 0 0 0 0 127 0" result="hardAlpha"/>
<feOffset dx="2" dy="1"/>
<feComposite in2="hardAlpha" operator="out"/>
<feColorMatrix type="matrix" values="0 0 0 0 0 0 0 0 0 0 0 0 0 0 0 0 0 0 1 0"/>
<feBlend mode="normal" in2="BackgroundImageFix" result="effect1_dropShadow_27_122"/>
<feBlend mode="normal" in="SourceGraphic" in2="effect1_dropShadow_27_122" result="shape"/>
</filter>
</defs>
</svg>
